REM DIRINDEX 1\2,1\3,1\4,1\5,1\6,1\7,1\8
REM DIRNAME folder01,folder02,folder03,folder04,folder05,folder06,folder07,folder08
TITLE ""
FILE "17_Ch4_Smartphone_PCLife_Behavier.mp3" MP3
  TRACK 01 AUDIO
    TITLE "0:"
    INDEX 01 00:00:00
  TRACK 02 AUDIO
    TITLE "8:cjc152_0859"
    INDEX 01 00:00:33
  TRACK 03 AUDIO
    TITLE "0:"
    INDEX 01 00:04:35
  TRACK 04 AUDIO
    TITLE "8:cjc152_0860"
    INDEX 01 00:05:20
  TRACK 05 AUDIO
    TITLE "0:"
    INDEX 01 00:06:55
  TRACK 06 AUDIO
    TITLE "3:cjc152_0861"
    INDEX 01 00:07:47
  TRACK 07 AUDIO
    TITLE "0:"
    INDEX 01 00:09:30
  TRACK 08 AUDIO
    TITLE "3:cjc152_0862"
    INDEX 01 00:10:23
  TRACK 09 AUDIO
    TITLE "0:"
    INDEX 01 00:12:24
  TRACK 10 AUDIO
    TITLE "3:cjc152_0863"
    INDEX 01 00:14:07
  TRACK 11 AUDIO
    TITLE "0:"
    INDEX 01 00:16:00
  TRACK 12 AUDIO
    TITLE "3:cjc152_0864"
    INDEX 01 00:16:69
  TRACK 13 AUDIO
    TITLE "0:"
    INDEX 01 00:18:72
  TRACK 14 AUDIO
    TITLE "3:cjc152_0865"
    INDEX 01 00:20:57
  TRACK 15 AUDIO
    TITLE "0:"
    INDEX 01 00:23:03
  TRACK 16 AUDIO
    TITLE "3:cjc152_0866"
    INDEX 01 00:23:69
  TRACK 17 AUDIO
    TITLE "0:"
    INDEX 01 00:26:67
  TRACK 18 AUDIO
    TITLE "3:cjc152_0867"
    INDEX 01 00:28:72
  TRACK 19 AUDIO
    TITLE "0:"
    INDEX 01 00:31:43
  TRACK 20 AUDIO
    TITLE "3:cjc152_0868"
    INDEX 01 00:32:50
  TRACK 21 AUDIO
    TITLE "0:"
    INDEX 01 00:35:39
  TRACK 22 AUDIO
    TITLE "3:cjc152_0869"
    INDEX 01 00:37:22
  TRACK 23 AUDIO
    TITLE "0:"
    INDEX 01 00:39:27
  TRACK 24 AUDIO
    TITLE "3:cjc152_0870"
    INDEX 01 00:40:19
  TRACK 25 AUDIO
    TITLE "0:"
    INDEX 01 00:42:31
  TRACK 26 AUDIO
    TITLE "3:cjc152_0871"
    INDEX 01 00:44:16
  TRACK 27 AUDIO
    TITLE "0:"
    INDEX 01 00:47:01
  TRACK 28 AUDIO
    TITLE "3:cjc152_0872"
    INDEX 01 00:48:04
  TRACK 29 AUDIO
    TITLE "0:"
    INDEX 01 00:51:22
  TRACK 30 AUDIO
    TITLE "3:cjc152_0873"
    INDEX 01 00:53:08
  TRACK 31 AUDIO
    TITLE "0:"
    INDEX 01 00:55:34
  TRACK 32 AUDIO
    TITLE "3:cjc152_0874"
    INDEX 01 00:56:24
  TRACK 33 AUDIO
    TITLE "0:"
    INDEX 01 00:58:42
  TRACK 34 AUDIO
    TITLE "3:cjc152_0875"
    INDEX 01 01:00:25
  TRACK 35 AUDIO
    TITLE "0:"
    INDEX 01 01:01:44
  TRACK 36 AUDIO
    TITLE "3:cjc152_0876"
    INDEX 01 01:02:38
  TRACK 37 AUDIO
    TITLE "0:"
    INDEX 01 01:04:03
  TRACK 38 AUDIO
    TITLE "3:cjc152_0877"
    INDEX 01 01:05:62
  TRACK 39 AUDIO
    TITLE "0:"
    INDEX 01 01:07:51
  TRACK 40 AUDIO
    TITLE "3:cjc152_0878"
    INDEX 01 01:08:42
  TRACK 41 AUDIO
    TITLE "0:"
    INDEX 01 01:10:30
  TRACK 42 AUDIO
    TITLE "3:cjc152_0879"
    INDEX 01 01:12:11
  TRACK 43 AUDIO
    TITLE "0:"
    INDEX 01 01:14:43
  TRACK 44 AUDIO
    TITLE "3:cjc152_0880"
    INDEX 01 01:15:35
  TRACK 45 AUDIO
    TITLE "0:"
    INDEX 01 01:18:02
  TRACK 46 AUDIO
    TITLE "3:cjc152_0881"
    INDEX 01 01:19:62
  TRACK 47 AUDIO
    TITLE "0:"
    INDEX 01 01:23:62
  TRACK 48 AUDIO
    TITLE "3:cjc152_0882"
    INDEX 01 01:24:53
  TRACK 49 AUDIO
    TITLE "0:"
    INDEX 01 01:29:33
  TRACK 50 AUDIO
    TITLE "3:cjc152_0883"
    INDEX 01 01:31:18
  TRACK 51 AUDIO
    TITLE "0:"
    INDEX 01 01:33:01
  TRACK 52 AUDIO
    TITLE "3:cjc152_0884"
    INDEX 01 01:33:68
  TRACK 53 AUDIO
    TITLE "0:"
    INDEX 01 01:35:29
  TRACK 54 AUDIO
    TITLE "3:cjc152_0885"
    INDEX 01 01:37:13
  TRACK 55 AUDIO
    TITLE "0:"
    INDEX 01 01:38:55
  TRACK 56 AUDIO
    TITLE "3:cjc152_0886"
    INDEX 01 01:39:49
  TRACK 57 AUDIO
    TITLE "0:"
    INDEX 01 01:41:20
  TRACK 58 AUDIO
    TITLE "3:cjc152_0887"
    INDEX 01 01:43:05
  TRACK 59 AUDIO
    TITLE "0:"
    INDEX 01 01:45:26
  TRACK 60 AUDIO
    TITLE "3:cjc152_0888"
    INDEX 01 01:46:19
  TRACK 61 AUDIO
    TITLE "0:"
    INDEX 01 01:48:42
  TRACK 62 AUDIO
    TITLE "3:cjc152_0889"
    INDEX 01 01:50:25
  TRACK 63 AUDIO
    TITLE "0:"
    INDEX 01 01:51:70
  TRACK 64 AUDIO
    TITLE "3:cjc152_0890"
    INDEX 01 01:52:63
  TRACK 65 AUDIO
    TITLE "0:"
    INDEX 01 01:54:42
  TRACK 66 AUDIO
    TITLE "3:cjc152_0891"
    INDEX 01 01:56:28
  TRACK 67 AUDIO
    TITLE "0:"
    INDEX 01 01:58:30
  TRACK 68 AUDIO
    TITLE "3:cjc152_0892"
    INDEX 01 01:59:22
  TRACK 69 AUDIO
    TITLE "0:"
    INDEX 01 02:01:15
  TRACK 70 AUDIO
    TITLE "3:cjc152_0893"
    INDEX 01 02:03:00
  TRACK 71 AUDIO
    TITLE "0:"
    INDEX 01 02:05:66
  TRACK 72 AUDIO
    TITLE "3:cjc152_0894"
    INDEX 01 02:06:57
  TRACK 73 AUDIO
    TITLE "0:"
    INDEX 01 02:09:69
  TRACK 74 AUDIO
    TITLE "3:cjc152_0895"
    INDEX 01 02:11:53
  TRACK 75 AUDIO
    TITLE "0:"
    INDEX 01 02:13:24
  TRACK 76 AUDIO
    TITLE "3:cjc152_0896"
    INDEX 01 02:14:18
  TRACK 77 AUDIO
    TITLE "0:"
    INDEX 01 02:16:17
  TRACK 78 AUDIO
    TITLE "3:cjc152_0897"
    INDEX 01 02:18:00
  TRACK 79 AUDIO
    TITLE "0:"
    INDEX 01 02:20:32
  TRACK 80 AUDIO
    TITLE "3:cjc152_0898"
    INDEX 01 02:21:26
  TRACK 81 AUDIO
    TITLE "0:"
    INDEX 01 02:24:22
  TRACK 82 AUDIO
    TITLE "3:cjc152_0899"
    INDEX 01 02:26:05
  TRACK 83 AUDIO
    TITLE "0:"
    INDEX 01 02:27:44
  TRACK 84 AUDIO
    TITLE "3:cjc152_0900"
    INDEX 01 02:28:37
  TRACK 85 AUDIO
    TITLE "0:"
    INDEX 01 02:30:40
  TRACK 86 AUDIO
    TITLE "3:cjc152_0901"
    INDEX 01 02:32:25
  TRACK 87 AUDIO
    TITLE "0:"
    INDEX 01 02:34:17
  TRACK 88 AUDIO
    TITLE "3:cjc152_0902"
    INDEX 01 02:35:08
  TRACK 89 AUDIO
    TITLE "0:"
    INDEX 01 02:37:21
  TRACK 90 AUDIO
    TITLE "3:cjc152_0903"
    INDEX 01 02:39:06
  TRACK 91 AUDIO
    TITLE "0:"
    INDEX 01 02:40:37
  TRACK 92 AUDIO
    TITLE "3:cjc152_0904"
    INDEX 01 02:41:30
  TRACK 93 AUDIO
    TITLE "0:"
    INDEX 01 02:43:39
  TRACK 94 AUDIO
    TITLE "3:cjc152_0905"
    INDEX 01 02:45:22
  TRACK 95 AUDIO
    TITLE "0:"
    INDEX 01 02:47:15
  TRACK 96 AUDIO
    TITLE "3:cjc152_0906"
    INDEX 01 02:48:11
  TRACK 97 AUDIO
    TITLE "0:"
    INDEX 01 02:50:16
  TRACK 98 AUDIO
    TITLE "3:cjc152_0907"
    INDEX 01 02:51:72
  TRACK 99 AUDIO
    TITLE "0:"
    INDEX 01 02:54:06
  TRACK 100 AUDIO
    TITLE "3:cjc152_0908"
    INDEX 01 02:54:70
  TRACK 101 AUDIO
    TITLE "0:"
    INDEX 01 02:57:08
  TRACK 102 AUDIO
    TITLE "3:cjc152_0909"
    INDEX 01 02:58:68
  TRACK 103 AUDIO
    TITLE "0:"
    INDEX 01 03:01:19
  TRACK 104 AUDIO
    TITLE "3:cjc152_0910"
    INDEX 01 03:02:13
  TRACK 105 AUDIO
    TITLE "0:"
    INDEX 01 03:04:71
  TRACK 106 AUDIO
    TITLE "3:cjc152_0911"
    INDEX 01 03:06:54
  TRACK 107 AUDIO
    TITLE "0:"
    INDEX 01 03:09:19
  TRACK 108 AUDIO
    TITLE "3:cjc152_0912"
    INDEX 01 03:10:10
  TRACK 109 AUDIO
    TITLE "0:"
    INDEX 01 03:13:05
  TRACK 110 AUDIO
    TITLE "3:cjc152_0913"
    INDEX 01 03:14:67
  TRACK 111 AUDIO
    TITLE "0:"
    INDEX 01 03:17:46
  TRACK 112 AUDIO
    TITLE "3:cjc152_0914"
    INDEX 01 03:18:39
  TRACK 113 AUDIO
    TITLE "0:"
    INDEX 01 03:20:68
  TRACK 114 AUDIO
    TITLE "3:cjc152_0915"
    INDEX 01 03:22:51
  TRACK 115 AUDIO
    TITLE "0:"
    INDEX 01 03:24:48
  TRACK 116 AUDIO
    TITLE "3:cjc152_0916"
    INDEX 01 03:25:41
  TRACK 117 AUDIO
    TITLE "0:"
    INDEX 01 03:27:60
  TRACK 118 AUDIO
    TITLE "3:cjc152_0917"
    INDEX 01 03:29:45
  TRACK 119 AUDIO
    TITLE "0:"
    INDEX 01 03:31:42
  TRACK 120 AUDIO
    TITLE "3:cjc152_0918"
    INDEX 01 03:32:36
  TRACK 121 AUDIO
    TITLE "0:"
    INDEX 01 03:34:64
  TRACK 122 AUDIO
    TITLE "3:cjc152_0919"
    INDEX 01 03:36:47
  TRACK 123 AUDIO
    TITLE "0:"
    INDEX 01 03:38:56
  TRACK 124 AUDIO
    TITLE "3:cjc152_0920"
    INDEX 01 03:39:49
  TRACK 125 AUDIO
    TITLE "0:"
    INDEX 01 03:42:05
  TRACK 126 AUDIO
    TITLE "3:cjc152_0921"
    INDEX 01 03:43:63
  TRACK 127 AUDIO
    TITLE "0:"
    INDEX 01 03:46:38
  TRACK 128 AUDIO
    TITLE "3:cjc152_0922"
    INDEX 01 03:47:27
  TRACK 129 AUDIO
    TITLE "0:"
    INDEX 01 03:49:61
  TRACK 130 AUDIO
    TITLE "3:cjc152_0923"
    INDEX 01 03:51:62
  TRACK 131 AUDIO
    TITLE "0:"
    INDEX 01 03:54:72
  TRACK 132 AUDIO
    TITLE "3:cjc152_0924"
    INDEX 01 03:55:66
  TRACK 133 AUDIO
    TITLE "0:"
    INDEX 01 03:58:58
  TRACK 134 AUDIO
    TITLE "3:cjc152_0925"
    INDEX 01 04:00:44
  TRACK 135 AUDIO
    TITLE "0:"
    INDEX 01 04:03:03
  TRACK 136 AUDIO
    TITLE "3:cjc152_0926"
    INDEX 01 04:03:69
  TRACK 137 AUDIO
    TITLE "0:"
    INDEX 01 04:07:50
  TRACK 138 AUDIO
    TITLE "3:cjc152_0927"
    INDEX 01 04:09:33
  TRACK 139 AUDIO
    TITLE "0:"
    INDEX 01 04:11:67
  TRACK 140 AUDIO
    TITLE "3:cjc152_0928"
    INDEX 01 04:12:62
  TRACK 141 AUDIO
    TITLE "0:"
    INDEX 01 04:15:49
  TRACK 142 AUDIO
    TITLE "3:cjc152_0929"
    INDEX 01 04:17:34
  TRACK 143 AUDIO
    TITLE "0:"
    INDEX 01 04:19:14
  TRACK 144 AUDIO
    TITLE "3:cjc152_0930"
    INDEX 01 04:20:05
  TRACK 145 AUDIO
    TITLE "0:"
    INDEX 01 04:21:61
  TRACK 146 AUDIO
    TITLE "3:cjc152_0931"
    INDEX 01 04:23:49
  TRACK 147 AUDIO
    TITLE "0:"
    INDEX 01 04:25:40
  TRACK 148 AUDIO
    TITLE "3:cjc152_0932"
    INDEX 01 04:26:41
  TRACK 149 AUDIO
    TITLE "0:"
    INDEX 01 04:29:43
  TRACK 150 AUDIO
    TITLE "3:cjc152_0933"
    INDEX 01 04:31:28
  TRACK 151 AUDIO
    TITLE "0:"
    INDEX 01 04:33:16
  TRACK 152 AUDIO
    TITLE "3:cjc152_0934"
    INDEX 01 04:34:05
  TRACK 153 AUDIO
    TITLE "0:"
    INDEX 01 04:35:63
  TRACK 154 AUDIO
    TITLE "3:cjc152_0935"
    INDEX 01 04:37:51
  TRACK 155 AUDIO
    TITLE "0:"
    INDEX 01 04:39:26
  TRACK 156 AUDIO
    TITLE "3:cjc152_0936"
    INDEX 01 04:40:22
  TRACK 157 AUDIO
    TITLE "0:"
    INDEX 01 04:41:62
  TRACK 158 AUDIO
    TITLE "3:cjc152_0937"
    INDEX 01 04:43:47
  TRACK 159 AUDIO
    TITLE "0:"
    INDEX 01 04:45:33
  TRACK 160 AUDIO
    TITLE "3:cjc152_0938"
    INDEX 01 04:46:22
  TRACK 161 AUDIO
    TITLE "0:"
    INDEX 01 04:48:23
  TRACK 162 AUDIO
    TITLE "3:cjc152_0939"
    INDEX 01 04:50:06
  TRACK 163 AUDIO
    TITLE "0:"
    INDEX 01 04:51:45
  TRACK 164 AUDIO
    TITLE "3:cjc152_0940"
    INDEX 01 04:52:38
  TRACK 165 AUDIO
    TITLE "0:"
    INDEX 01 04:54:28
  TRACK 166 AUDIO
    TITLE "3:cjc152_0941"
    INDEX 01 04:56:09
  TRACK 167 AUDIO
    TITLE "0:"
    INDEX 01 04:58:25
  TRACK 168 AUDIO
    TITLE "3:cjc152_0942"
    INDEX 01 04:59:17
  TRACK 169 AUDIO
    TITLE "0:"
    INDEX 01 05:01:32
  TRACK 170 AUDIO
    TITLE "3:cjc152_0943"
    INDEX 01 05:03:11
  TRACK 171 AUDIO
    TITLE "0:"
    INDEX 01 05:04:65
  TRACK 172 AUDIO
    TITLE "3:cjc152_0944"
    INDEX 01 05:05:61
  TRACK 173 AUDIO
    TITLE "0:"
    INDEX 01 05:07:62
